<svg width="2282" height="1201" xmlns="http://www.w3.org/2000/svg" xmlns:xlink="http://www.w3.org/1999/xlink" xml:space="preserve" overflow="hidden"><defs><clipPath id="clip0"><rect x="990" y="316" width="2282" height="1201"/></clipPath></defs><g clip-path="url(#clip0)" transform="translate(-990 -316)"><path d="M1098 1444 1549.94 387 2714.06 387 3166 1444Z" stroke="#FFFFFF" stroke-width="137.5" stroke-linecap="butt" stroke-linejoin="miter" stroke-miterlimit="8" stroke-opacity="1" fill="none" fill-rule="evenodd"/><path d="M1586.32 1510.56C1451.79 1183.22 1608.11 808.852 1935.47 674.382 2262.83 539.913 2637.27 696.263 2771.79 1023.6 2835.64 1178.96 2835.93 1353.17 2772.6 1508.73L2498.79 1397.25C2570.65 1220.72 2485.76 1019.34 2309.18 947.448 2132.6 875.556 1931.19 960.379 1859.32 1136.91 1825.21 1220.7 1825.38 1314.54 1859.78 1398.23Z" fill="#FFFFFF" fill-rule="evenodd" fill-opacity="1"/><path d="M2190 1119C2190 1012.96 2274.84 927 2379.5 927 2484.16 927 2569 1012.96 2569 1119 2569 1225.04 2484.16 1311 2379.5 1311 2274.84 1311 2190 1225.04 2190 1119Z" fill="#FFFFFF" fill-rule="evenodd" fill-opacity="1"/></g></svg>